<svg width="25" height="25" viewBox="0 0 25 25" fill="none" xmlns="http://www.w3.org/2000/svg">
<g id="famicons:warning-outline">
<path id="Vector" d="M4.17819 21.7896H20.8217C21.0921 21.7895 21.3577 21.7193 21.5928 21.5859C21.8279 21.4524 22.0243 21.2603 22.1629 21.0282C22.3015 20.7961 22.3776 20.532 22.3836 20.2618C22.3896 19.9915 22.3254 19.7243 22.1972 19.4863L13.8759 4.03223C13.2856 2.93652 11.7143 2.93652 11.124 4.03223L2.8027 19.4863C2.67455 19.7243 2.61034 19.9915 2.61635 20.2618C2.62236 20.532 2.69838 20.7961 2.83698 21.0282C2.97558 21.2603 3.17202 21.4524 3.4071 21.5859C3.64219 21.7193 3.90787 21.7895 4.17819 21.7896Z" stroke="white" stroke-linecap="round" stroke-linejoin="round"/>
<path id="Vector_2" d="M12.2197 9.54054L12.4999 15.4976L12.7797 9.54298C12.7815 9.50492 12.7754 9.4669 12.7619 9.43125C12.7485 9.3956 12.7279 9.36307 12.7014 9.33565C12.675 9.30823 12.6432 9.28649 12.608 9.27177C12.5729 9.25704 12.5351 9.24964 12.497 9.25001C12.4596 9.25038 12.4226 9.25824 12.3882 9.27314C12.3539 9.28804 12.3229 9.30966 12.297 9.33674C12.2712 9.36382 12.251 9.39581 12.2377 9.43081C12.2244 9.46582 12.2183 9.50313 12.2197 9.54054Z" stroke="white" stroke-linecap="round" stroke-linejoin="round"/>
<path id="Vector_3" d="M12.5 19.3813C12.3099 19.3813 12.1242 19.325 11.9661 19.2194C11.8081 19.1138 11.6849 18.9637 11.6122 18.7881C11.5395 18.6126 11.5204 18.4193 11.5575 18.2329C11.5946 18.0465 11.6861 17.8753 11.8205 17.7409C11.9549 17.6065 12.1261 17.515 12.3125 17.4779C12.4989 17.4409 12.6921 17.4599 12.8677 17.5326C13.0433 17.6054 13.1934 17.7285 13.299 17.8865C13.4046 18.0446 13.4609 18.2304 13.4609 18.4204C13.4609 18.6753 13.3597 18.9197 13.1795 19.0999C12.9993 19.2801 12.7549 19.3813 12.5 19.3813Z" fill="white" stroke="white" stroke-width="0.03125"/>
</g>
</svg>
