<svg width="18" height="18" viewBox="0 0 18 18" fill="none" xmlns="http://www.w3.org/2000/svg">
<path fill-rule="evenodd" clip-rule="evenodd" d="M16.4998 14.25V3.75C16.4998 2.50736 15.4924 1.5 14.2498 1.5H3.74976C2.50712 1.5 1.49976 2.50736 1.49976 3.75V14.25C1.49976 15.4926 2.50712 16.5 3.74976 16.5H14.2498C15.4924 16.5 16.4998 15.4926 16.4998 14.25ZM8.24533 5.25003C8.24533 5.45001 8.32519 5.6417 8.46718 5.78253C8.68175 5.99887 9.00588 6.0639 9.28729 5.94706C9.5687 5.83021 9.75145 5.55473 9.74968 5.25003C9.75145 4.94533 9.5687 4.66984 9.28729 4.553C9.00588 4.43616 8.68175 4.50118 8.46718 4.71753C8.32519 4.85835 8.24533 5.05005 8.24533 5.25003ZM14.9996 3.75012C14.9996 3.3359 14.6638 3.00012 14.2496 3.00012H3.74959C3.33537 3.00012 2.99959 3.3359 2.99959 3.75012V14.2501C2.99959 14.6643 3.33537 15.0001 3.74959 15.0001H14.2496C14.6638 15.0001 14.9996 14.6643 14.9996 14.2501V3.75012ZM9.74959 12H9.85459C10.2688 12 10.6046 12.3358 10.6046 12.75C10.6046 13.1643 10.2688 13.5 9.85459 13.5H8.14459C7.73037 13.5 7.39459 13.1643 7.39459 12.75C7.39459 12.3358 7.73037 12 8.14459 12H8.24959V8.25005C7.83537 8.25005 7.49959 7.91426 7.49959 7.50005C7.49959 7.08583 7.83537 6.75005 8.24959 6.75005H8.99959C9.4138 6.75005 9.74959 7.08583 9.74959 7.50005V12Z" fill="#324053"/>
</svg>
